<svg xmlns="http://www.w3.org/2000/svg" viewBox="0 0 200 200" fill="none">
  <defs>
    <linearGradient id="rb-grad" x1="28" y1="172" x2="172" y2="28" gradientUnits="userSpaceOnUse">
      <stop offset="0%" stop-color="#2A1FC9"/>
      <stop offset="55%" stop-color="#4A7BEA"/>
      <stop offset="100%" stop-color="#78D8E5"/>
    </linearGradient>
  </defs>
  <g transform="rotate(-28 100 100)" fill="url(#rb-grad)">
    <path d="M50 70 h28 q10 0 10 -10 v-4 a12 12 0 0 1 24 0 v4 q0 10 10 10 h28 a30 30 0 0 1 0 60 h-28 q-10 0 -10 10 v4 a12 12 0 0 1 -24 0 v-4 q0 -10 -10 -10 h-28 a30 30 0 0 1 0 -60 z"/>
    <path d="M130 50 v28 q0 10 10 10 h4 a12 12 0 0 1 0 24 h-4 q-10 0 -10 10 v28 a30 30 0 0 1 -60 0 v-28 q0 -10 -10 -10 h-4 a12 12 0 0 1 0 -24 h4 q10 0 10 -10 v-28 a30 30 0 0 1 60 0 z"/>
  </g>
  <circle cx="158" cy="36" r="13" fill="url(#rb-grad)"/>
  <circle cx="42" cy="164" r="11" fill="url(#rb-grad)"/>
</svg>
